# xmcd
#
# Track frame offsets:
#	150
#	35838
#	84402
#	163019
#	199993
#	221432
#
# Disc length: 3274 seconds
#
# Revision: 1
# Processed by: cddbd v1.5.2PL0 Copyright (c) Steve Scherf et al.
# Submitted via: audiograbber 1.83.01
#
DISCID=500cc806
DTITLE=Dire Straits - Live in San Antonio 85
DYEAR=1985
DGENRE=Rock
TTITLE0=Money for Nothing
TTITLE1=Wild West End
TTITLE2=Tunnel of Love
TTITLE3=Brothers in Arms
TTITLE4=Solid Rock
TTITLE5=Going Home
EXTD=
EXTT0=
EXTT1=
EXTT2=
EXTT3=
EXTT4=
EXTT5=
PLAYORDER=
